<?xml version="1.0" encoding="UTF-8"?>
<svg version="1.1" xmlns="http://www.w3.org/2000/svg" width="453" height="529">
<path d="M0 0 C2.96150189 1.48075095 3.31193062 3.58398764 4.6171875 6.59765625 C5.13563232 7.78004883 5.65407715 8.96244141 6.18823242 10.18066406 C6.46283295 10.81331177 6.73743347 11.44595947 7.02035522 12.09777832 C15.83577564 32.3633297 25.38108206 52.17795607 37 71 C37.47969238 71.78777832 37.95938477 72.57555664 38.45361328 73.38720703 C44.40863952 83.15528768 50.44006074 92.38759861 58 101 C58.53367187 101.67675781 59.06734375 102.35351562 59.6171875 103.05078125 C72.3168072 118.81473705 91.9410341 129.62333907 111.80078125 132.5625 C135.06223301 134.77130254 152.66458911 126.56318066 171 113 C169.19005614 106.98600664 166.44238177 101.53182623 163.65820312 95.92578125 C163.30306641 95.19230469 162.94792969 94.45882812 162.58203125 93.703125 C162.09053589 92.70780762 162.09053589 92.70780762 161.58911133 91.69238281 C161.39470459 91.13389648 161.20029785 90.57541016 161 90 C161.33 89.34 161.66 88.68 162 88 C163.93851853 90.41585122 165.87563243 92.83282502 167.8125 95.25 C168.63331055 96.27287109 168.63331055 96.27287109 169.47070312 97.31640625 C172.02871205 100.51004163 174.57717396 103.70155612 177 107 C180.36251945 106.38068797 182.46633735 105.15561735 185.1953125 103.12109375 C185.9886499 102.53368408 186.7819873 101.94627441 187.59936523 101.34106445 C188.43282471 100.71288818 189.26628418 100.08471191 190.125 99.4375 C190.98230713 98.79707764 191.83961426 98.15665527 192.72290039 97.49682617 C201.91574763 90.60590211 210.69743768 83.49479882 219.109375 75.66796875 C221.63906875 73.33312979 224.21008308 71.06527247 226.8125 68.8125 C230.37414027 65.67748088 233.47497544 62.32261432 236.4921875 58.6640625 C238 57 238 57 241 55 C240.40570147 58.90238506 239.2257481 61.78493195 237.296875 65.21875 C236.45467407 66.72453613 236.45467407 66.72453613 235.59545898 68.26074219 C234.98645752 69.32969727 234.37745605 70.39865234 233.75 71.5 C232.8065271 73.1691748 232.8065271 73.1691748 231.84399414 74.87207031 C225.28202581 86.40009683 218.27949699 97.63338812 211.20214844 108.84912109 C209.40054392 111.70877275 207.60642148 114.57302457 205.8125 117.4375 C205.25941162 118.30793945 204.70632324 119.17837891 204.13647461 120.07519531 C201.49624503 124.2932596 199.28841445 128.13880437 198 133 C198.80824219 133.86882812 199.61648437 134.73765625 200.44921875 135.6328125 C201.52872487 136.79680171 202.6081475 137.96086835 203.6875 139.125 C204.48317383 139.97964844 204.48317383 139.97964844 205.29492188 140.8515625 C207.8060839 143.56300125 210.25830116 146.28573396 212.58203125 149.16015625 C224.09165048 162.67791582 244.39282348 176.89285356 262.4375 178.8125 C276.49603819 179.73351672 290.57804314 175.29795176 301.4140625 166.26171875 C304.75641446 163.31747416 307.89455053 160.19072973 311 157 C311.82757813 156.16984375 312.65515625 155.3396875 313.5078125 154.484375 C319.74657155 147.93676649 325.03587732 140.7332951 330.3996582 133.46679688 C333.96406943 128.65252716 337.60556506 123.99567603 341.5625 119.5 C349.49705284 110.33197407 356.1025629 100.15296529 362.94335938 90.16162109 C363.57564453 89.24590332 364.20792969 88.33018555 364.859375 87.38671875 C365.43655273 86.54713623 366.01373047 85.70755371 366.60839844 84.8425293 C367.06762695 84.23449463 367.52685547 83.62645996 368 83 C368.33 83 368.66 83 369 83 C368.4149475 88.91117285 367.56740912 94.61984501 366.29296875 100.41796875 C366.12770691 101.18848572 365.96244507 101.95900269 365.79217529 102.75286865 C365.44142685 104.38800983 365.08894579 106.02278021 364.73483276 107.65719604 C363.805992 111.95120076 362.89460083 116.24889148 361.984375 120.546875 C361.80660019 121.38608994 361.62882538 122.22530487 361.44566345 123.08995056 C359.65201788 131.59178723 358.07160303 140.12012052 356.58642578 148.68066406 C355.98610651 152.07864109 355.36668542 155.47267508 354.74275208 158.86637878 C354.10897959 162.31442443 353.47970883 165.76328651 352.85061646 169.21218872 C352.53966089 170.91225871 352.22712497 172.61204059 351.91281128 174.31149292 C349.23047673 188.83520741 346.57275292 203.49097676 346.75 218.3125 C346.76015137 219.61815918 346.76015137 219.61815918 346.77050781 220.95019531 C347.24261775 251.41775532 355.96019519 276.09011295 369.94628906 302.97070312 C371.09781372 305.18837526 372.23215874 307.41446867 373.3671875 309.640625 C378.36576278 319.36952098 383.77094266 328.69748031 389.66748047 337.90527344 C392.15055172 341.80867237 394.57679895 345.74675482 397 349.6875 C397.46913818 350.44232666 397.93827637 351.19715332 398.42163086 351.97485352 C400.6276117 355.5649951 402.61031604 358.99676269 404 363 C401.21545667 361.70234874 398.92758387 360.27315368 396.56640625 358.3125 C395.92421143 357.78366211 395.2820166 357.25482422 394.62036133 356.70996094 C393.94126709 356.14567383 393.26217285 355.58138672 392.5625 355 C391.12078356 353.81649899 389.67806246 352.63422087 388.234375 351.453125 C387.51830078 350.86724609 386.80222656 350.28136719 386.06445312 349.67773438 C372.38904697 338.56404101 357.93994035 328.8775114 342.96801758 319.60791016 C336.41870504 315.54551555 329.94756718 311.40091633 323.64111328 306.96899414 C317.9507833 303.05206159 313.16437617 301.4154221 306.36328125 302.3984375 C295.83899389 305.07734701 288.02605423 313.26763577 281.9375 321.8125 C281.38513672 322.58239258 280.83277344 323.35228516 280.26367188 324.14550781 C274.34478247 332.61105098 269.43555212 341.61144391 264.4921875 350.66796875 C261.18255039 356.72392016 257.67889494 362.6476259 254.125 368.5625 C249.44383304 376.40871129 245.15397777 384.32457116 241.19140625 392.55273438 C238.80578236 397.45304051 236.34920756 402.31839585 233.90673828 407.19055176 C232.456619 410.08434795 231.00970065 412.97974337 229.5625 415.875 C228.70833333 417.58333333 227.85416667 419.29166667 227 421 C226.67 421 226.34 421 226 421 C226.4377102 410.22972013 228.55529789 399.75549897 230.5223999 389.18347168 C231.55739161 383.60837503 232.56752894 378.02878092 233.578125 372.44921875 C233.88561172 370.75286789 233.88561172 370.75286789 234.1993103 369.02224731 C244.98861402 309.32485911 251.38114392 265.00950053 221.08227539 210.32861328 C215.35448899 199.94415527 209.97644543 189.38247513 204.58227539 178.82226562 C199.47706803 168.83340633 194.27372452 158.90094241 189 149 C188.1490979 150.63267822 188.1490979 150.63267822 187.28100586 152.29833984 C183.55187756 159.44395003 179.73552618 166.51654011 175.68481445 173.48583984 C143.86398438 227.60128711 143.86398438 227.60128711 130 288 C129.9484375 288.89589844 129.896875 289.79179687 129.84375 290.71484375 C129.0784507 315.49140853 136.74393989 339.66279829 144.38671875 362.921875 C145.56661888 366.58437693 146.69983532 370.25681893 147.76953125 373.953125 C148.02968018 374.84676758 148.2898291 375.74041016 148.55786133 376.66113281 C149 379 149 379 148 382 C146.12402939 378.68804887 144.2493827 375.37535003 142.375 372.0625 C141.78960449 371.02851074 141.20420898 369.99452148 140.60107422 368.92919922 C137.56377036 363.55836688 134.53923557 358.18117414 131.546875 352.78515625 C125.55762305 341.99320226 119.46380974 331.27870734 113.125 320.6875 C112.53090332 319.69250488 111.93680664 318.69750977 111.32470703 317.67236328 C105.53664454 308.06962448 99.34677244 298.73601548 92.8125 289.625 C92.41353516 289.06167969 92.01457031 288.49835938 91.60351562 287.91796875 C85.78741887 279.78107086 81.1499435 274.48788956 71.125 272.0625 C52.84849475 270.71655582 32.9461628 289.53065783 19.91162109 300.66992188 C9.85816081 309.40354013 0.2292494 318.59999894 -9.08178711 328.1184082 C-11.88460627 330.96650991 -14.74174975 333.67683943 -17.7734375 336.28125 C-22.81376398 340.63801956 -27.48909323 345.34307128 -32.1875 350.0625 C-33.06341797 350.93455078 -33.93933594 351.80660156 -34.84179688 352.70507812 C-39.11509422 356.98485507 -43.24069049 361.26000106 -47 366 C-47.33 365.34 -47.66 364.68 -48 364 C-46.89526367 361.58007812 -46.89526367 361.58007812 -45.16796875 358.53125 C-44.53310547 357.40074219 -43.89824219 356.27023437 -43.24414062 355.10546875 C-42.55885663 353.90349592 -41.8733098 352.7016729 -41.1875 351.5 C-40.22037811 349.78524488 -39.25325935 348.07048794 -38.28660583 346.35546875 C-37.25950604 344.53442061 -36.23065824 342.71436929 -35.20141602 340.89453125 C-34.84306671 340.26047363 -34.48471741 339.62641602 -34.11550903 338.97314453 C-33.36132622 337.63912424 -32.60648671 336.30547503 -31.8510437 334.97216797 C-24.60547386 322.16048114 -17.84717966 309.12422992 -11.1875 296 C-10.11951847 293.89857367 -9.05148416 291.79717416 -7.98339844 289.69580078 C-6.4067323 286.59263475 -4.83079635 283.48910682 -3.25686646 280.384552 C-0.80777318 275.55380188 1.64842509 270.72719596 4.13226318 265.91421509 C40.45258319 195.53105696 32.30360928 140.96117339 14.1875 66.15234375 C14.02097805 65.46465031 13.8544561 64.77695686 13.68288803 64.06842422 C12.00928404 57.16153937 10.32827438 50.25653622 8.62953758 43.35578728 C0 8.2899903 0 8.2899903 0 0 Z " fill="#2462EB" transform="translate(48,108)"/>
<path d="M0 0 C9.68514281 4.19097158 15.96380112 11.51972165 22.3125 19.625 C22.745625 20.17551025 23.17875 20.72602051 23.625 21.29321289 C25.99609285 24.3968575 27.75311475 27.2937886 29 31 C29.4846875 30.57589844 29.969375 30.15179688 30.46875 29.71484375 C31.88836887 28.47267724 33.31044684 27.23331804 34.734375 25.99609375 C36.13840605 24.75909398 37.52725714 23.50433472 38.890625 22.22265625 C44.37436993 17.14212786 50.40216547 13.48344061 57 10 C57.66644531 9.63519531 58.33289063 9.27039063 59.01953125 8.89453125 C65.50084572 5.88686245 73.04701034 6.18018142 80 7 C84.13438759 8.56291874 86.33116153 11.12214951 89 14.625 C91.16219563 21.92241026 89.54995392 29.13422369 86.2109375 35.8359375 C81.21716076 44.7602998 74.69191386 52.32542625 68 60 C67.31421875 60.79921875 66.6284375 61.5984375 65.921875 62.421875 C60.82686096 68.23901702 55.39229219 73.70946532 49.9375 79.1875 C49.18138428 79.94828857 48.42526855 80.70907715 47.64624023 81.49291992 C43.48938243 85.63801858 39.23069527 89.5778486 34.78344727 93.40795898 C32.33481196 95.59379756 30.16231125 97.97111373 28 100.4375 C27.236875 101.30246094 26.47375 102.16742188 25.6875 103.05859375 C25.130625 103.69925781 24.57375 104.33992188 24 105 C19.67095981 103.49124567 17.8026949 100.25199481 15.4375 96.5625 C15.00840332 95.90580322 14.57930664 95.24910645 14.13720703 94.57250977 C9.22240765 86.95359451 4.73185252 79.0878431 0.26220703 71.20263672 C-0.86518935 69.23525371 -2.01847524 67.28810741 -3.19140625 65.34765625 C-7.10753071 58.77990936 -10.38868566 52.15897634 -13.375 45.125 C-13.70910889 44.33996094 -14.04321777 43.55492187 -14.38745117 42.74609375 C-18.74249418 32.18189161 -21.23138491 20.67197317 -18.3125 9.328125 C-14.81451783 1.57426453 -8.27418886 -1.74263463 0 0 Z " fill="#2462EB" transform="translate(220,58)"/>
<path d="M0 0 C7.80659248 6.38721203 12.92373264 13.2891669 13.98925781 23.55517578 C15.35671423 43.44440923 9.89817195 60.09307955 -3.25 75.25 C-11.46262235 81.33138255 -21.22892376 83.24929272 -31.25 82.25 C-42.18690734 79.78355827 -50.85189749 74.54248222 -57.25 65.25 C-64.09542979 53.18042642 -64.77211346 40.05473399 -61.15234375 26.86206055 C-57.53273955 14.94903823 -49.79626786 5.46703204 -38.9296875 -0.60546875 C-24.95217596 -7.30766961 -13.69371564 -7.37353919 0 0 Z " fill="#2462EB" transform="translate(193.25,136.75)"/>
<path d="M0 0 C7.95825976 6.53026557 10.65592506 15.40438896 12.375 25.25 C13.61428789 38.0301564 12.10049824 47.19300263 4.9375 57.9375 C-0.60501432 63.78793178 -6.74933763 66.45566125 -14.75 66.75 C-23.36122611 66.66993695 -29.90246988 64.10642297 -36.4375 58.484375 C-45.23065553 49.16059801 -48.76851869 37.68148943 -48.50390625 25.0859375 C-47.93475336 16.83902828 -46.5231184 9.06662387 -40.25 3.25 C-28.242714 -6.43740696 -13.1940396 -9.13625006 0 0 Z " fill="#2462EB" transform="translate(335.3125,189.6875)"/>
<path d="M0 0 C0.33 0 0.66 0 1 0 C1.12004395 0.825 1.24008789 1.65 1.36376953 2.5 C3.92959688 29.66119586 3.92959688 29.66119586 17.58203125 51.73828125 C24.35249976 55.27117516 31.56683918 56.62333714 39.0625 57.6875 C39.92810547 57.81705078 40.79371094 57.94660156 41.68554688 58.08007812 C43.78930608 58.39389856 45.89451257 58.69799214 48 59 C48 59.33 48 59.66 48 60 C46.36804688 60.32871094 46.36804688 60.32871094 44.703125 60.6640625 C31.06841296 63.54755045 18.421421 67.26680497 10.38671875 79.4453125 C1.87676644 94.60696451 1.18621296 113.03377932 0 130 C-2.72218357 127.27781643 -2.60494734 125.24066021 -3.1484375 121.4453125 C-3.35147335 120.0937366 -3.55460156 118.74217458 -3.7578125 117.390625 C-4.06584671 115.27422594 -4.37038935 113.15738072 -4.671875 111.04003906 C-6.7412854 96.65627534 -9.0774849 83.36472513 -20.765625 73.66015625 C-29.72445846 67.00368034 -40.36779075 64.72175291 -51 62 C-51 61.67 -51 61.34 -51 61 C-49.91203125 60.82984375 -48.8240625 60.6596875 -47.703125 60.484375 C-28.95436869 57.77475924 -28.95436869 57.77475924 -14 47 C-5.29564889 34.86524778 -3.67148744 19.61358424 -1.41723633 5.26147461 C-1 3 -1 3 0 0 Z " fill="#2462EB" transform="translate(109,0)"/>
<path d="M0 0 C0.33 0 0.66 0 1 0 C1.14695313 1.30453125 1.29390625 2.6090625 1.4453125 3.953125 C2.99208773 18.98052229 2.99208773 18.98052229 10 32 C15.76866513 35.55469732 22.33617429 36.49706976 29 37 C26.69354946 39.30645054 25.49239993 39.49719135 22.375 40.25 C15.54670964 42.22349432 10.91583069 45.41103961 6.6875 51.125 C2.01306355 60.55624183 1.1976827 71.68583841 0 82 C-0.33 82 -0.66 82 -1 82 C-1.10022461 81.38068604 -1.20044922 80.76137207 -1.30371094 80.12329102 C-1.7732487 77.26746863 -2.2614973 74.41513704 -2.75 71.5625 C-2.90726563 70.58861328 -3.06453125 69.61472656 -3.2265625 68.61132812 C-4.72121117 60.01709828 -6.71340497 51.84662357 -13.87109375 46.28125 C-19.42470986 42.93889021 -25.66160681 41.15555544 -32 40 C-31.67 39.34 -31.34 38.68 -31 38 C-28.55859375 37.5078125 -28.55859375 37.5078125 -25.4375 37.125 C-18.57480268 36.05728818 -12.70104276 34.6995233 -8.41796875 28.88671875 C-5.72700055 24.96075282 -4.67617145 21.12258786 -3.75 16.5 C-3.51023438 15.41912109 -3.51023438 15.41912109 -3.265625 14.31640625 C-2.52419014 10.89962726 -1.909418 7.49766195 -1.453125 4.03125 C-1 1 -1 1 0 0 Z " fill="#2462EB" transform="translate(236,335)"/>
<path d="M0 0 C0.66 0.33 1.32 0.66 2 1 C2.54396013 3.98580315 2.98569793 6.93120721 3.375 9.9375 C4.77783986 22.33154439 4.77783986 22.33154439 11.61328125 32.14453125 C15.5584694 34.30596651 18.97511009 35.07370589 23.375 35.75 C24.11105469 35.87503906 24.84710938 36.00007813 25.60546875 36.12890625 C27.40152115 36.43213588 29.20050871 36.71789448 31 37 C31 37.33 31 37.66 31 38 C30.29875 38.17015625 29.5975 38.3403125 28.875 38.515625 C16.42925428 41.68834328 16.42925428 41.68834328 7.31640625 50.2734375 C2.83782863 59.54954188 1.43979728 70.81869291 1 81 C0.34 80.67 -0.32 80.34 -1 80 C-1.54395927 77.01420158 -1.98549319 74.06875869 -2.375 71.0625 C-4.2983388 56.9873984 -4.2983388 56.9873984 -12.94140625 46.2421875 C-16.7514816 43.94312875 -20.80142765 42.43399515 -25 41 C-26.794375 40.38125 -26.794375 40.38125 -28.625 39.75 C-29.40875 39.5025 -30.1925 39.255 -31 39 C-31 38.67 -31 38.34 -31 38 C-30.29875 37.89042969 -29.5975 37.78085938 -28.875 37.66796875 C-16.52180418 35.74496547 -16.52180418 35.74496547 -7.2421875 27.984375 C-2.1427536 19.83810953 -1.50761292 9.31298477 0 0 Z " fill="#2462EB" transform="translate(365,86)"/>
<path d="" fill="#0040FF" transform="translate(0,0)"/>
<path d="" fill="#2060FF" transform="translate(0,0)"/>
</svg>
