<?xml version="1.0" encoding="UTF-8"?>
<svg xmlns="http://www.w3.org/2000/svg" xmlns:xlink="http://www.w3.org/1999/xlink" width="32px" height="32px" viewBox="0 0 32 32" version="1.1">
<g id="surface1">
<path style=" stroke:none;fill-rule:nonzero;fill:rgb(14.117648%,38.431373%,92.156863%);fill-opacity:1;" d="M 3.390625 6.53125 C 3.601562 6.621094 3.625 6.75 3.71875 6.933594 C 3.753906 7.003906 3.789062 7.074219 3.828125 7.148438 C 3.847656 7.1875 3.867188 7.226562 3.886719 7.265625 C 4.507812 8.492188 5.183594 9.6875 6.003906 10.828125 C 6.039062 10.875 6.070312 10.921875 6.105469 10.972656 C 6.527344 11.5625 6.953125 12.121094 7.488281 12.644531 C 7.527344 12.683594 7.5625 12.722656 7.601562 12.765625 C 8.5 13.71875 9.886719 14.375 11.289062 14.550781 C 12.929688 14.6875 14.175781 14.1875 15.46875 13.367188 C 15.34375 13.003906 15.148438 12.675781 14.953125 12.335938 C 14.925781 12.292969 14.902344 12.246094 14.875 12.203125 C 14.839844 12.140625 14.839844 12.140625 14.804688 12.078125 C 14.792969 12.046875 14.777344 12.011719 14.765625 11.976562 C 14.785156 11.9375 14.808594 11.898438 14.835938 11.855469 C 14.972656 12.003906 15.109375 12.148438 15.246094 12.292969 C 15.304688 12.355469 15.304688 12.355469 15.363281 12.417969 C 15.542969 12.613281 15.722656 12.804688 15.894531 13.003906 C 16.132812 12.96875 16.28125 12.894531 16.472656 12.769531 C 16.527344 12.734375 16.585938 12.699219 16.644531 12.664062 C 16.703125 12.625 16.761719 12.585938 16.820312 12.546875 C 16.882812 12.507812 16.941406 12.472656 17.003906 12.429688 C 17.652344 12.015625 18.273438 11.582031 18.867188 11.109375 C 19.046875 10.96875 19.230469 10.832031 19.414062 10.695312 C 19.664062 10.507812 19.882812 10.304688 20.097656 10.082031 C 20.203125 9.980469 20.203125 9.980469 20.414062 9.859375 C 20.371094 10.097656 20.289062 10.269531 20.152344 10.476562 C 20.09375 10.570312 20.09375 10.570312 20.035156 10.664062 C 19.988281 10.726562 19.945312 10.792969 19.902344 10.859375 C 19.835938 10.960938 19.835938 10.960938 19.769531 11.0625 C 19.304688 11.757812 18.808594 12.4375 18.308594 13.117188 C 18.183594 13.289062 18.054688 13.464844 17.929688 13.636719 C 17.890625 13.691406 17.851562 13.742188 17.8125 13.796875 C 17.625 14.050781 17.46875 14.285156 17.378906 14.578125 C 17.433594 14.632812 17.492188 14.683594 17.550781 14.738281 C 17.625 14.808594 17.703125 14.878906 17.777344 14.949219 C 17.835938 15 17.835938 15 17.894531 15.054688 C 18.070312 15.21875 18.242188 15.382812 18.40625 15.554688 C 19.21875 16.375 20.65625 17.234375 21.929688 17.351562 C 22.921875 17.40625 23.917969 17.136719 24.683594 16.589844 C 24.917969 16.414062 25.140625 16.222656 25.359375 16.03125 C 25.417969 15.980469 25.476562 15.929688 25.535156 15.878906 C 25.976562 15.480469 26.351562 15.046875 26.730469 14.605469 C 26.980469 14.316406 27.238281 14.035156 27.519531 13.761719 C 28.078125 13.207031 28.546875 12.589844 29.027344 11.988281 C 29.074219 11.933594 29.117188 11.875 29.164062 11.820312 C 29.207031 11.769531 29.246094 11.71875 29.289062 11.664062 C 29.320312 11.628906 29.351562 11.589844 29.386719 11.554688 C 29.410156 11.554688 29.433594 11.554688 29.457031 11.554688 C 29.414062 11.910156 29.355469 12.257812 29.265625 12.609375 C 29.253906 12.652344 29.242188 12.699219 29.230469 12.75 C 29.207031 12.847656 29.179688 12.945312 29.15625 13.046875 C 29.089844 13.304688 29.027344 13.566406 28.960938 13.824219 C 28.949219 13.875 28.9375 13.925781 28.921875 13.980469 C 28.796875 14.492188 28.683594 15.007812 28.578125 15.527344 C 28.539062 15.734375 28.492188 15.9375 28.449219 16.144531 C 28.40625 16.351562 28.359375 16.558594 28.316406 16.769531 C 28.292969 16.871094 28.273438 16.976562 28.25 17.078125 C 28.058594 17.957031 27.871094 18.84375 27.886719 19.738281 C 27.886719 19.816406 27.886719 19.816406 27.886719 19.898438 C 27.921875 21.742188 28.535156 23.234375 29.523438 24.859375 C 29.605469 24.996094 29.683594 25.128906 29.765625 25.265625 C 30.117188 25.851562 30.5 26.417969 30.917969 26.972656 C 31.09375 27.210938 31.265625 27.449219 31.433594 27.6875 C 31.46875 27.730469 31.5 27.777344 31.535156 27.824219 C 31.691406 28.042969 31.832031 28.25 31.929688 28.492188 C 31.734375 28.414062 31.570312 28.328125 31.402344 28.207031 C 31.359375 28.175781 31.3125 28.144531 31.265625 28.109375 C 31.21875 28.078125 31.171875 28.042969 31.121094 28.007812 C 31.019531 27.9375 30.917969 27.863281 30.816406 27.792969 C 30.765625 27.757812 30.714844 27.722656 30.664062 27.6875 C 29.695312 27.011719 28.675781 26.425781 27.617188 25.867188 C 27.15625 25.621094 26.699219 25.371094 26.253906 25.101562 C 25.851562 24.863281 25.511719 24.765625 25.03125 24.824219 C 24.289062 24.988281 23.738281 25.484375 23.308594 26 C 23.269531 26.046875 23.230469 26.09375 23.1875 26.140625 C 22.769531 26.652344 22.421875 27.199219 22.074219 27.746094 C 21.839844 28.113281 21.59375 28.46875 21.34375 28.828125 C 21.011719 29.300781 20.707031 29.78125 20.429688 30.277344 C 20.261719 30.574219 20.085938 30.871094 19.914062 31.164062 C 19.8125 31.339844 19.710938 31.515625 19.605469 31.691406 C 19.546875 31.792969 19.488281 31.898438 19.425781 32 C 19.402344 32 19.378906 32 19.355469 32 C 19.386719 31.347656 19.535156 30.714844 19.675781 30.074219 C 19.746094 29.738281 19.820312 29.402344 19.890625 29.0625 C 19.914062 28.960938 19.914062 28.960938 19.933594 28.855469 C 20.695312 25.246094 21.148438 22.5625 19.007812 19.257812 C 18.601562 18.628906 18.222656 17.988281 17.84375 17.351562 C 17.480469 16.746094 17.113281 16.144531 16.742188 15.546875 C 16.679688 15.644531 16.679688 15.644531 16.621094 15.746094 C 16.355469 16.179688 16.085938 16.605469 15.800781 17.027344 C 13.554688 20.300781 13.554688 20.300781 12.574219 23.953125 C 12.570312 24.007812 12.566406 24.0625 12.5625 24.117188 C 12.507812 25.617188 13.050781 27.078125 13.589844 28.488281 C 13.671875 28.707031 13.753906 28.929688 13.828125 29.152344 C 13.847656 29.207031 13.867188 29.261719 13.886719 29.316406 C 13.917969 29.460938 13.917969 29.460938 13.84375 29.640625 C 13.714844 29.441406 13.582031 29.238281 13.449219 29.039062 C 13.40625 28.976562 13.367188 28.914062 13.324219 28.851562 C 13.109375 28.523438 12.894531 28.199219 12.683594 27.875 C 12.261719 27.222656 11.828125 26.574219 11.382812 25.933594 C 11.339844 25.871094 11.296875 25.8125 11.253906 25.75 C 10.847656 25.167969 10.410156 24.605469 9.945312 24.054688 C 9.917969 24.019531 9.890625 23.984375 9.863281 23.949219 C 9.449219 23.457031 9.125 23.136719 8.414062 22.992188 C 7.125 22.910156 5.71875 24.046875 4.796875 24.722656 C 4.085938 25.25 3.40625 25.804688 2.75 26.382812 C 2.550781 26.554688 2.347656 26.71875 2.136719 26.875 C 1.777344 27.140625 1.449219 27.421875 1.117188 27.707031 C 1.054688 27.761719 0.992188 27.8125 0.929688 27.867188 C 0.628906 28.128906 0.335938 28.386719 0.0703125 28.671875 C 0.046875 28.632812 0.0234375 28.59375 0 28.550781 C 0.078125 28.40625 0.078125 28.40625 0.199219 28.222656 C 0.246094 28.152344 0.289062 28.085938 0.335938 28.015625 C 0.382812 27.941406 0.433594 27.867188 0.480469 27.796875 C 0.550781 27.691406 0.617188 27.589844 0.6875 27.484375 C 0.757812 27.375 0.832031 27.265625 0.902344 27.15625 C 0.929688 27.117188 0.953125 27.078125 0.980469 27.039062 C 1.035156 26.957031 1.085938 26.875 1.140625 26.796875 C 1.652344 26.019531 2.128906 25.234375 2.601562 24.4375 C 2.675781 24.3125 2.75 24.183594 2.828125 24.058594 C 2.9375 23.871094 3.050781 23.683594 3.160156 23.492188 C 3.332031 23.203125 3.507812 22.910156 3.683594 22.617188 C 6.25 18.359375 5.671875 15.058594 4.394531 10.535156 C 4.382812 10.492188 4.371094 10.453125 4.355469 10.410156 C 4.238281 9.992188 4.121094 9.574219 4 9.15625 C 3.390625 7.035156 3.390625 7.035156 3.390625 6.53125 Z M 3.390625 6.53125 "/>
<path style=" stroke:none;fill-rule:nonzero;fill:rgb(14.117648%,38.431373%,92.156863%);fill-opacity:1;" d="M 15.539062 3.507812 C 16.226562 3.761719 16.667969 4.207031 17.117188 4.695312 C 17.148438 4.730469 17.179688 4.761719 17.210938 4.796875 C 17.378906 4.984375 17.5 5.160156 17.589844 5.382812 C 17.625 5.359375 17.65625 5.332031 17.691406 5.304688 C 17.792969 5.230469 17.894531 5.15625 17.996094 5.082031 C 18.09375 5.007812 18.191406 4.929688 18.289062 4.851562 C 18.675781 4.546875 19.101562 4.324219 19.566406 4.113281 C 19.613281 4.089844 19.660156 4.070312 19.710938 4.046875 C 20.167969 3.863281 20.699219 3.882812 21.191406 3.933594 C 21.484375 4.027344 21.640625 4.179688 21.828125 4.394531 C 21.980469 4.835938 21.867188 5.269531 21.628906 5.675781 C 21.277344 6.214844 20.816406 6.671875 20.34375 7.136719 C 20.296875 7.1875 20.246094 7.234375 20.199219 7.285156 C 19.835938 7.636719 19.453125 7.96875 19.070312 8.296875 C 19.015625 8.34375 18.960938 8.390625 18.90625 8.4375 C 18.613281 8.6875 18.3125 8.925781 17.996094 9.160156 C 17.824219 9.292969 17.671875 9.433594 17.519531 9.585938 C 17.464844 9.636719 17.410156 9.6875 17.355469 9.742188 C 17.316406 9.78125 17.277344 9.820312 17.234375 9.859375 C 16.929688 9.769531 16.796875 9.574219 16.632812 9.351562 C 16.601562 9.308594 16.570312 9.269531 16.539062 9.230469 C 16.191406 8.769531 15.875 8.292969 15.558594 7.816406 C 15.480469 7.695312 15.398438 7.578125 15.316406 7.460938 C 15.039062 7.0625 14.808594 6.664062 14.597656 6.238281 C 14.574219 6.191406 14.546875 6.144531 14.523438 6.09375 C 14.21875 5.457031 14.042969 4.757812 14.246094 4.074219 C 14.496094 3.605469 14.957031 3.402344 15.539062 3.507812 Z M 15.539062 3.507812 "/>
<path style=" stroke:none;fill-rule:nonzero;fill:rgb(14.117648%,38.431373%,92.156863%);fill-opacity:1;" d="M 13.652344 8.273438 C 14.203125 8.660156 14.5625 9.074219 14.640625 9.695312 C 14.734375 10.898438 14.351562 11.90625 13.421875 12.824219 C 12.839844 13.191406 12.152344 13.308594 11.445312 13.246094 C 10.671875 13.097656 10.058594 12.78125 9.605469 12.21875 C 9.125 11.488281 9.074219 10.695312 9.332031 9.898438 C 9.585938 9.175781 10.132812 8.601562 10.902344 8.234375 C 11.886719 7.832031 12.683594 7.828125 13.652344 8.273438 Z M 13.652344 8.273438 "/>
<path style=" stroke:none;fill-rule:nonzero;fill:rgb(14.117648%,38.431373%,92.156863%);fill-opacity:1;" d="M 23.6875 11.472656 C 24.25 11.871094 24.4375 12.40625 24.5625 13 C 24.648438 13.773438 24.542969 14.328125 24.035156 14.980469 C 23.644531 15.332031 23.210938 15.496094 22.644531 15.511719 C 22.035156 15.507812 21.574219 15.351562 21.113281 15.011719 C 20.492188 14.449219 20.242188 13.753906 20.261719 12.992188 C 20.300781 12.492188 20.398438 12.023438 20.84375 11.671875 C 21.691406 11.085938 22.753906 10.921875 23.6875 11.472656 Z M 23.6875 11.472656 "/>
<path style=" stroke:none;fill-rule:nonzero;fill:rgb(14.117648%,38.431373%,92.156863%);fill-opacity:1;" d="M 7.699219 0 C 7.722656 0 7.746094 0 7.769531 0 C 7.777344 0.0507812 7.789062 0.101562 7.796875 0.152344 C 7.976562 1.792969 7.976562 1.792969 8.941406 3.128906 C 9.421875 3.34375 9.929688 3.425781 10.460938 3.488281 C 10.519531 3.496094 10.582031 3.503906 10.644531 3.511719 C 10.792969 3.53125 10.941406 3.550781 11.089844 3.570312 C 11.089844 3.589844 11.089844 3.609375 11.089844 3.628906 C 10.976562 3.648438 10.976562 3.648438 10.859375 3.667969 C 9.894531 3.84375 9 4.070312 8.433594 4.804688 C 7.832031 5.722656 7.785156 6.835938 7.699219 7.863281 C 7.507812 7.699219 7.515625 7.574219 7.476562 7.347656 C 7.464844 7.265625 7.449219 7.183594 7.433594 7.101562 C 7.414062 6.972656 7.390625 6.84375 7.371094 6.71875 C 7.222656 5.847656 7.058594 5.042969 6.234375 4.457031 C 5.601562 4.054688 4.847656 3.914062 4.097656 3.75 C 4.097656 3.730469 4.097656 3.710938 4.097656 3.691406 C 4.175781 3.679688 4.25 3.667969 4.328125 3.660156 C 5.65625 3.496094 5.65625 3.496094 6.710938 2.84375 C 7.324219 2.109375 7.441406 1.1875 7.601562 0.316406 C 7.628906 0.179688 7.628906 0.179688 7.699219 0 Z M 7.699219 0 "/>
<path style=" stroke:none;fill-rule:nonzero;fill:rgb(14.117648%,38.431373%,92.156863%);fill-opacity:1;" d="M 16.671875 20.265625 C 16.695312 20.265625 16.71875 20.265625 16.742188 20.265625 C 16.753906 20.34375 16.761719 20.421875 16.773438 20.503906 C 16.882812 21.414062 16.882812 21.414062 17.378906 22.199219 C 17.785156 22.414062 18.25 22.472656 18.71875 22.503906 C 18.558594 22.640625 18.472656 22.652344 18.25 22.699219 C 17.769531 22.820312 17.441406 23.011719 17.144531 23.355469 C 16.8125 23.929688 16.753906 24.601562 16.671875 25.226562 C 16.648438 25.226562 16.625 25.226562 16.601562 25.226562 C 16.59375 25.1875 16.585938 25.148438 16.578125 25.113281 C 16.546875 24.9375 16.511719 24.765625 16.476562 24.59375 C 16.464844 24.535156 16.453125 24.476562 16.441406 24.414062 C 16.335938 23.894531 16.195312 23.402344 15.691406 23.0625 C 15.300781 22.863281 14.859375 22.753906 14.410156 22.683594 C 14.433594 22.644531 14.457031 22.605469 14.480469 22.5625 C 14.652344 22.535156 14.652344 22.535156 14.875 22.511719 C 15.359375 22.445312 15.773438 22.363281 16.078125 22.011719 C 16.265625 21.773438 16.339844 21.542969 16.40625 21.261719 C 16.421875 21.199219 16.421875 21.199219 16.441406 21.128906 C 16.492188 20.925781 16.535156 20.71875 16.570312 20.507812 C 16.601562 20.324219 16.601562 20.324219 16.671875 20.265625 Z M 16.671875 20.265625 "/>
<path style=" stroke:none;fill-rule:nonzero;fill:rgb(14.117648%,38.431373%,92.156863%);fill-opacity:1;" d="M 25.785156 5.203125 C 25.832031 5.222656 25.875 5.242188 25.925781 5.261719 C 25.964844 5.445312 25.996094 5.621094 26.023438 5.804688 C 26.121094 6.554688 26.121094 6.554688 26.605469 7.148438 C 26.882812 7.277344 27.125 7.324219 27.433594 7.363281 C 27.488281 7.371094 27.539062 7.378906 27.59375 7.386719 C 27.71875 7.40625 27.847656 7.421875 27.972656 7.441406 C 27.972656 7.460938 27.972656 7.480469 27.972656 7.5 C 27.925781 7.511719 27.875 7.523438 27.824219 7.53125 C 26.945312 7.722656 26.945312 7.722656 26.300781 8.242188 C 25.984375 8.804688 25.886719 9.484375 25.855469 10.101562 C 25.808594 10.082031 25.761719 10.0625 25.714844 10.042969 C 25.675781 9.859375 25.644531 9.683594 25.617188 9.5 C 25.480469 8.648438 25.480469 8.648438 24.871094 8 C 24.601562 7.859375 24.3125 7.769531 24.019531 7.683594 C 23.890625 7.644531 23.890625 7.644531 23.761719 7.605469 C 23.707031 7.59375 23.652344 7.578125 23.59375 7.5625 C 23.59375 7.542969 23.59375 7.523438 23.59375 7.5 C 23.644531 7.496094 23.691406 7.488281 23.742188 7.480469 C 24.617188 7.363281 24.617188 7.363281 25.273438 6.894531 C 25.632812 6.402344 25.675781 5.765625 25.785156 5.203125 Z M 25.785156 5.203125 "/>
</g>
</svg>
